Coordinates
version=1
nRows=12
nColumns=24
inDegrees=yes

Units are S.I. units (second, meters, Newtons, ...)
Angles are in degrees.

endheader
time	pelvis_tilt	pelvis_list	pelvis_rotation	pelvis_tx	pelvis_ty	pelvis_tz	hip_flexion_r	hip_adduction_r	hip_rotation_r	knee_angle_r	ankle_angle_r	subtalar_angle_r	mtp_angle_r	hip_flexion_l	hip_adduction_l	hip_rotation_l	knee_angle_l	ankle_angle_l	subtalar_angle_l	mtp_angle_l	lumbar_extension	lumbar_bending	lumbar_rotation
      0.57900000	      1.51039994	      6.08556617	     -5.46658464	     -0.78979027	      0.98018178	      0.31121342	     22.70222550	     -4.36947062	      1.43867457	      1.10441628	     -0.61432938	     -2.18594869	      7.49031361	    -21.19299529	     12.01124922	      5.49375669	      0.63478491	     10.62324893	    -12.38931218	     -2.08400256	    -13.37273804	      1.23393410	     -8.42757411
      0.58316667	      1.48702897	      5.91933874	     -5.49081983	     -0.78408934	      0.97953259	      0.31172094	     22.66001356	     -4.12193309	      1.82585568	      0.95760968	     -0.92955745	     -2.60755041	      7.52324957	    -21.30255691	     11.84585356	      5.36304631	      0.15653376	     10.82964681	    -12.19716826	     -2.05319156	    -13.35654782	      1.43088142	     -8.27628926
      0.58733333	      1.41479073	      5.76366383	     -5.49784146	     -0.77837321	      0.97887244	      0.31219370	     22.72728888	     -3.88792420	      2.12025028	      0.61815877	     -1.14589529	     -2.81335396	      7.56660673	    -21.31901512	     11.68510803	      5.19651767	     -0.40313566	     11.06751666	    -11.90870354	     -1.99762537	    -13.28163371	      1.63743035	     -8.24415553
      0.59150000	      1.36417574	      5.59274292	     -5.51262724	     -0.77262476	      0.97828237	      0.31267467	     22.77840842	     -3.63917530	      2.42671126	      0.19975798	     -1.40572641	     -3.07802158	      7.61352515	    -21.34502286	     11.51532805	      5.01748702	     -0.99610827	     11.29472179	    -11.63535596	     -1.92144970	    -13.21499202	      1.86902845	     -8.17987177
      0.59566667	      1.30396084	      5.40858640	     -5.52565330	     -0.76685391	      0.97771884	      0.31318602	     22.85219853	     -3.37400282	      2.73703699	     -0.30299931	     -1.70373473	     -3.38622735	      7.66286663	    -21.34011132	     11.32979720	      4.82367202	     -1.63307419	     11.50377232	    -11.37238361	     -1.82308758	    -13.15320953	      2.10475871	     -8.11991499
      0.59983333	      1.23866236	      5.21793027	     -5.54057733	     -0.76104077	      0.97719508	      0.31370488	     22.94065273	     -3.10042056	      3.04606356	     -0.87523124	     -2.03768259	     -3.73212004	      7.71251105	    -21.31618580	     11.13904769	      4.63185881	     -2.29863213	     11.67994141	    -11.12847222	     -1.70310787	    -13.07326660	      2.36042026	     -8.05080320
      0.60400000	      1.18192082	      4.99261924	     -5.56053182	     -0.75516833	      0.97671933	      0.31423297	     23.02252740	     -2.79139133	      3.33965615	     -1.51291923	     -2.32598496	     -4.03934944	      7.74431535	    -21.30144086	     10.91882476	      4.47375658	     -2.97562708	     11.80476730	    -11.01641472	     -1.60912803	    -13.00886581	      2.67086332	     -7.97655222
      0.60816667	      1.11024755	      4.80666254	     -5.57879849	     -0.74932144	      0.97626233	      0.31481751	     23.14894154	     -2.51285885	      3.64474401	     -2.21852799	     -2.78557628	     -4.52610728	      7.78897409	    -21.22823496	     10.72977284	      4.23626838	     -3.72027396	     11.94176411	    -10.69590673	     -1.44335703	    -12.92567512	      2.88743232	     -7.89610503
      0.61233333	      1.05782075	      4.58869318	     -5.59728518	     -0.74340823	      0.97587651	      0.31539159	     23.24642060	     -2.20650800	      3.92797957	     -2.95410601	     -3.19271732	     -4.97523731	      7.84157671	    -21.15660907	     10.51246482	      3.98495610	     -4.51138268	     12.05261272	    -10.43442849	     -1.22559537	    -12.86255153	      3.16712449	     -7.81288337
      0.61650000	      0.99173063	      4.37060046	     -5.61716247	     -0.73746777	      0.97550109	      0.31597618	     23.37879606	     -1.89629158	      4.18278452	     -3.75763511	     -3.58964745	     -5.41562725	      7.88809457	    -21.06169201	     10.29685537	      3.77924183	     -5.32638523	     12.10159418	    -10.26000376	     -0.99082185	    -12.78194428	      3.44932681	     -7.72984766
      0.62066667	      0.92451999	      4.15220039	     -5.63631232	     -0.73149177	      0.97516667	      0.31657552	     23.51873610	     -1.58426914	      4.42160182	     -4.59844489	     -3.98435537	     -5.87445423	      7.93137514	    -20.94401830	     10.07938141	      3.55247321	     -6.17769297	     12.11147145	    -10.08692339	     -0.71662122	    -12.69959130	      3.72872295	     -7.64177082
      0.62483333	      0.86810779	      3.92566733	     -5.65078635	     -0.72549702	      0.97487687	      0.31718949	     23.64989579	     -1.26535805	      4.63759776	     -5.46316665	     -4.37393413	     -6.35436637	      7.97589229	    -20.81171432	      9.85143871	      3.31873220	     -7.09122634	     12.09420697	     -9.90509816	     -0.36019088	    -12.63174345	      4.01301259	     -7.55475246
